<svg width="751" height="800" viewBox="0 0 751 800" fill="none" xmlns="http://www.w3.org/2000/svg">
<path fill-rule="evenodd" clip-rule="evenodd" d="M27.8776 1.42041H723.03V124.417H411.145C409.315 117.828 403.238 101.905 393.574 101.905C383.91 101.905 389.547 67.1286 393.574 49.7406C396.502 43.1515 399.943 28.7653 390.279 23.9332C380.615 19.1012 369.78 28.509 365.57 33.8169C357.517 41.8703 340.971 66.7625 339.214 101.905V124.417H27.8776V1.42041ZM353.055 146.803C355.201 174.688 357.784 208.237 351.845 252.356C367.585 232.223 397.874 175.179 382.045 124.966C366.12 74.4498 378.201 45.8969 382.045 37.1114C347.335 72.4946 349.645 102.501 353.055 146.803ZM58.6275 145.283V129.908H36.6638L58.6275 145.283ZM656.59 132.105H685.143V473.092C682.946 575.223 618.702 783.439 379.298 799.253C134.622 787.832 69.7919 577.053 67.9616 473.092V132.105H94.8672V473.092C97.2466 568.451 157.464 761.915 379.298 772.897C467.702 771.798 646.926 710.3 656.59 473.092V132.105ZM692.83 132.105V147.479L714.794 132.105H692.83ZM500.098 419.83C495.339 437.95 478.244 478.912 454.523 486.819V500.546C380.286 511.528 319.263 503.658 298.032 498.35V486.819C269.04 470.127 255.569 438.499 252.457 424.772L105.849 503.841C105.849 511.748 108.045 520.68 109.144 524.157L266.184 471.994L110.242 530.197C149.777 702.393 284.121 756.058 346.352 761.366L335.919 623.543C362.715 628.375 401.993 625.557 418.283 623.543L408.4 761.366C566.978 741.598 630.782 599.017 642.863 530.197L486.92 468.699L644.51 524.157C646.706 519.765 647.621 505.122 647.804 498.35L500.098 419.83ZM270.578 306.167C274.092 296.943 293.273 273.771 302.425 263.338L104.202 193.054V217.214L270.578 306.167ZM248.065 383.041C246.747 361.516 254.105 340.028 257.948 331.975L104.202 344.055V373.157L248.065 383.041ZM465.506 258.945C472.095 268.097 486.591 290.683 491.862 307.814L647.256 222.156V194.152L465.506 258.945ZM499.001 331.975C501.38 339.662 505.919 360.527 505.041 382.491L647.256 373.706V343.505L499.001 331.975ZM369.414 245.218C402.799 205.244 399.432 143.27 393.575 117.279C417.018 168.428 419.264 185.456 423.892 220.533L424.084 221.992L424.218 223.009L424.323 223.803C428.277 253.674 417.917 292.257 412.243 307.815C410.779 314.587 408.729 331.536 412.243 345.153C415.758 358.771 427.252 361.077 432.56 360.528C435.122 360.711 442.444 356.684 451.229 339.113C460.014 321.542 450.863 273.222 445.189 251.258C468.91 277.615 482.527 318.98 486.371 336.368C488.567 346.8 492.631 376.891 491.313 413.79C489.995 450.689 465.139 476.02 452.876 484.074C401.481 494.177 329.33 488.283 299.679 484.074C224.124 414.229 272.225 319.895 305.719 281.458C271.456 348.228 298.398 385.786 316.152 396.219C314.322 389.264 310.442 370.96 309.563 353.389C308.685 335.818 317.617 315.685 322.192 307.815C324.023 303.605 336.03 285.192 369.414 245.218ZM733.464 98.061V29.9734H749.936L743.347 65.6645L749.936 98.061H733.464ZM17.9947 28.8752V96.9628H1.52185L8.11097 64.5663L1.52185 28.8752H17.9947ZM469.349 504.939C439.149 517.568 306.268 518.117 282.108 504.939L285.403 570.83C296.934 587.303 458.367 585.107 466.055 570.83L469.349 504.939ZM311.21 588.401C332.808 591.33 388.852 595.43 440.247 588.401V610.365C408.948 617.503 342.508 617.503 312.308 609.267L311.21 588.401ZM367.767 295.735C385.338 279.481 393.025 257.847 394.673 249.062C397.784 256.932 402.14 277.285 394.673 295.735C387.205 314.184 385.704 336.734 385.887 345.702C386.253 358.148 393.465 385.347 419.382 394.571C445.299 403.796 463.492 387.067 469.349 377.549C469.789 392.924 464.224 408.848 461.113 413.79C451.046 429.164 420.041 454.862 376.553 434.655C333.064 414.449 334.272 365.103 340.312 342.957C342.143 333.988 350.196 311.988 367.767 295.735ZM282.108 369.862C281.376 385.786 281.778 420.379 289.246 431.36C296.714 442.342 304.072 446.186 306.817 446.735C311.759 448.199 321.972 447.833 323.29 434.655C323.656 431.36 321.862 422.685 311.759 414.339C301.656 405.992 296.567 401.709 295.286 400.611C292.358 398.415 285.622 389.19 282.108 369.862ZM87.18 32.1695L72.3545 37.6605L73.4527 48.6423L85.5328 45.8969V96.4135H99.2601V32.1695H87.18ZM234.814 95.4768C238.692 97.1994 243.094 98.0607 248.018 98.0607C252.881 98.0607 257.251 97.1994 261.13 95.4768C265.069 93.7541 268.178 91.4163 270.455 88.4631C272.733 85.51 273.872 82.157 273.872 78.4041C273.872 76.0047 273.471 73.8514 272.671 71.9442C271.871 70.037 270.763 68.3759 269.347 66.9608C267.993 65.4843 266.362 64.2846 264.454 63.3617C264.15 63.1997 263.842 63.0435 263.532 62.8931C263.581 62.8618 263.63 62.8304 263.679 62.7989C263.722 62.7713 263.765 62.7436 263.807 62.7157C265.223 61.7314 266.485 60.624 267.593 59.3935C268.701 58.163 269.563 56.748 270.178 55.1484C270.794 53.5488 271.102 51.8261 271.102 49.9805C271.102 46.5352 270.055 43.459 267.962 40.752C265.931 38.045 263.161 35.9532 259.652 34.4766C256.143 32.9386 252.265 32.1695 248.018 32.1695C243.709 32.1695 239.8 32.9386 236.292 34.4766C232.783 35.9532 229.982 38.045 227.889 40.752C225.858 43.459 224.842 46.5352 224.842 49.9805C224.842 51.7646 225.15 53.4565 225.766 55.0561C226.381 56.5942 227.212 58.0092 228.259 59.3012C229.367 60.5932 230.628 61.7314 232.044 62.7157L232.167 62.792C231.971 62.8874 231.776 62.985 231.583 63.0849C229.736 64.0692 228.105 65.2689 226.689 66.684C225.335 68.0375 224.257 69.6986 223.457 71.6673C222.657 73.5746 222.257 75.8202 222.257 78.4041C222.257 82.0955 223.365 85.4485 225.581 88.4631C227.858 91.4163 230.936 93.7541 234.814 95.4768ZM253.65 84.6795C252.05 85.3562 250.173 85.6946 248.018 85.6946C245.864 85.6946 243.955 85.3562 242.293 84.6795C240.631 83.9412 239.308 82.9568 238.323 81.7264C237.4 80.4959 236.938 79.1116 236.938 77.5736C236.938 75.974 237.4 74.5897 238.323 73.4208C239.308 72.1903 240.631 71.2367 242.293 70.5599C243.955 69.8216 245.864 69.4525 248.018 69.4525C250.111 69.4525 251.988 69.8216 253.65 70.5599C255.312 71.2367 256.605 72.1903 257.528 73.4208C258.513 74.5897 259.006 75.974 259.006 77.5736C259.006 79.1732 258.513 80.5882 257.528 81.8187C256.605 82.9876 255.312 83.9412 253.65 84.6795ZM252.727 56.5327C251.373 57.1479 249.803 57.4555 248.018 57.4555C246.233 57.4555 244.632 57.1479 243.217 56.5327C241.801 55.9174 240.662 55.0869 239.8 54.041C239 52.9336 238.6 51.6723 238.6 50.2573C238.6 48.9653 239 47.8271 239.8 46.8428C240.601 45.7969 241.709 44.9663 243.124 44.3511C244.54 43.7359 246.171 43.4282 248.018 43.4282C249.803 43.4282 251.404 43.7359 252.819 44.3511C254.235 44.9663 255.312 45.7969 256.051 46.8428C256.851 47.8271 257.251 48.9653 257.251 50.2573C257.251 51.6723 256.851 52.9336 256.051 54.041C255.251 55.0869 254.143 55.9174 252.727 56.5327ZM470.382 98.0608C464.774 98.0608 459.934 96.8844 455.861 94.5316C451.788 92.1787 449.298 90.672 446.287 85.8457L456.276 77.3483C457.048 78.5715 457.769 79.1451 458.572 79.7838L458.572 79.784C458.997 80.1217 459.444 80.4777 459.934 80.9576C461.41 82.2848 463.004 83.3406 464.715 84.1249C466.486 84.9091 468.434 85.3013 470.559 85.3013C472.566 85.3013 474.426 84.9695 476.138 84.3058C477.849 83.6422 479.237 82.6468 480.299 81.3196C481.362 79.932 481.893 78.273 481.893 76.3425C481.893 74.4119 481.391 72.8434 480.388 71.6368C479.384 70.3699 478.086 69.465 476.492 68.922C474.898 68.3187 473.157 68.0171 471.268 68.0171C470.323 68.0171 469.349 68.1076 468.346 68.2886C467.342 68.4696 466.368 68.7109 465.424 69.0125C464.479 69.2538 463.564 69.6158 462.679 70.0984L459.137 61.4111L473.654 46.653L449.574 46.2083V33.2678H494.023V44.3079L478.822 56.8847C480.18 57.1409 481.499 57.5336 482.778 58.0629C485.258 59.0281 487.471 60.3855 489.419 62.135C491.367 63.8846 492.902 65.9659 494.023 68.3791C495.145 70.7319 495.706 73.2959 495.706 76.071C495.706 80.4146 494.555 84.2455 492.253 87.5636C490.009 90.8214 486.969 93.3853 483.133 95.2555C479.355 97.1257 475.105 98.0608 470.382 98.0608ZM624.969 96.1524C629.233 98.1567 633.898 99.1589 638.966 99.1589C643.909 99.1589 648.297 98.1567 652.128 96.1524C656.021 94.0854 659.11 91.3294 661.397 87.8844C663.683 84.3768 664.826 80.462 664.826 76.1401C664.826 71.693 663.776 67.7782 661.675 64.3958C659.636 61.0135 656.886 58.3828 653.425 56.5037C649.965 54.6246 646.072 53.6851 641.746 53.6851C639.584 53.6851 637.39 53.9669 635.165 54.5306C634.47 54.6918 633.79 54.8692 633.126 55.0628V45.605H660.285V32.1695H620.465V62.963L626.133 68.9056C626.971 68.4257 627.146 68.3701 627.441 68.277C627.646 68.2123 627.908 68.1293 628.492 67.8721C629.913 67.2458 631.458 66.7447 633.126 66.3689C634.795 65.9931 636.617 65.8052 638.595 65.8052C640.881 65.8052 642.89 66.2436 644.62 67.1205C646.412 67.9974 647.802 69.1875 648.791 70.6908C649.841 72.1314 650.367 73.8226 650.367 75.7643C650.367 77.6434 649.841 79.3346 648.791 80.8378C647.802 82.3411 646.412 83.5312 644.62 84.4081C642.89 85.2224 640.85 85.6295 638.502 85.6295C635.66 85.6295 632.941 85.0345 630.345 83.8444C627.75 82.5917 626.178 81.4106 623.644 78.8425L615.957 88.7262C618.8 92.1711 620.706 94.148 624.969 96.1524Z" fill="black"/>
<path d="M723.03 1.42041H723.53V0.92041H723.03V1.42041ZM27.8776 1.42041V0.92041H27.3776V1.42041H27.8776ZM723.03 124.417V124.917H723.53V124.417H723.03ZM411.145 124.417L410.663 124.551L410.765 124.917H411.145V124.417ZM393.574 49.7406L393.117 49.5376L393.098 49.5813L393.087 49.6278L393.574 49.7406ZM390.279 23.9332L390.503 23.486L390.503 23.486L390.279 23.9332ZM365.57 33.8169L365.924 34.1705L365.944 34.1501L365.962 34.1276L365.57 33.8169ZM339.214 101.905L338.714 101.88L338.714 101.892V101.905H339.214ZM339.214 124.417V124.917H339.714V124.417H339.214ZM27.8776 124.417H27.3776V124.917H27.8776V124.417ZM351.845 252.356L351.349 252.289L351.103 254.116L352.239 252.664L351.845 252.356ZM353.055 146.803L352.556 146.841L352.556 146.841L353.055 146.803ZM382.045 124.966L381.568 125.117L381.568 125.117L382.045 124.966ZM382.045 37.1114L382.503 37.3118L381.688 36.7613L382.045 37.1114ZM58.6275 129.908H59.1275V129.408H58.6275V129.908ZM58.6275 145.283L58.3408 145.693L59.1275 146.243V145.283H58.6275ZM36.6638 129.908V129.408H35.0776L36.377 130.318L36.6638 129.908ZM685.143 132.105H685.643V131.605H685.143V132.105ZM656.59 132.105V131.605H656.09V132.105H656.59ZM685.143 473.092L685.643 473.102V473.092H685.143ZM379.298 799.253L379.274 799.753L379.302 799.754L379.331 799.752L379.298 799.253ZM67.9616 473.092H67.4615L67.4617 473.1L67.9616 473.092ZM67.9616 132.105V131.605H67.4616V132.105H67.9616ZM94.8672 132.105H95.3672V131.605H94.8672V132.105ZM94.8672 473.092H94.367L94.3673 473.104L94.8672 473.092ZM379.298 772.897L379.273 773.396L379.288 773.397L379.304 773.397L379.298 772.897ZM656.59 473.092L657.089 473.112L657.09 473.102V473.092H656.59ZM692.83 147.479H692.33V148.439L693.117 147.889L692.83 147.479ZM692.83 132.105V131.605H692.33V132.105H692.83ZM714.794 132.105L715.08 132.514L716.38 131.605H714.794V132.105ZM454.523 486.819L454.365 486.345L454.023 486.459V486.819H454.523ZM500.098 419.83L500.333 419.388L499.775 419.092L499.615 419.703L500.098 419.83ZM454.523 500.546L454.597 501.041L455.023 500.978V500.546H454.523ZM298.032 498.35H297.532V498.74L297.911 498.835L298.032 498.35ZM298.032 486.819H298.532V486.53L298.281 486.386L298.032 486.819ZM252.457 424.772L252.945 424.661L252.799 424.019L252.22 424.331L252.457 424.772ZM105.849 503.841L105.612 503.401L105.349 503.543V503.841H105.849ZM109.144 524.157L108.667 524.308L108.82 524.792L109.301 524.632L109.144 524.157ZM266.184 471.994L266.359 472.462L266.027 471.519L266.184 471.994ZM110.242 530.197L110.067 529.729L109.656 529.882L109.754 530.309L110.242 530.197ZM346.352 761.366L346.31 761.864L346.895 761.914L346.851 761.328L346.352 761.366ZM335.919 623.543L336.008 623.051L335.372 622.937L335.421 623.581L335.919 623.543ZM418.283 623.543L418.782 623.579L418.825 622.973L418.222 623.047L418.283 623.543ZM408.4 761.366L407.901 761.33L407.857 761.937L408.461 761.862L408.4 761.366ZM642.863 530.197L643.355 530.284L643.426 529.882L643.046 529.732L642.863 530.197ZM486.92 468.699L487.086 468.227L486.737 469.164L486.92 468.699ZM644.51 524.157L644.344 524.629L644.76 524.776L644.957 524.381L644.51 524.157ZM647.804 498.35L648.304 498.364L648.313 498.054L648.039 497.909L647.804 498.35ZM302.425 263.338L302.801 263.668L303.287 263.113L302.592 262.867L302.425 263.338ZM270.578 306.167L270.342 306.608L270.843 306.876L271.045 306.345L270.578 306.167ZM104.202 193.054L104.369 192.583L103.702 192.346V193.054H104.202ZM104.202 217.214H103.702V217.514L103.967 217.655L104.202 217.214ZM257.948 331.975L258.4 332.19L258.773 331.409L257.909 331.476L257.948 331.975ZM248.065 383.041L248.03 383.539L248.599 383.578L248.564 383.01L248.065 383.041ZM104.202 344.055L104.163 343.556L103.702 343.593V344.055H104.202ZM104.202 373.157H103.702V373.624L104.168 373.656L104.202 373.157ZM491.862 307.814L491.384 307.961L491.565 308.549L492.104 308.252L491.862 307.814ZM465.506 258.945L465.338 258.474L464.711 258.697L465.1 259.237L465.506 258.945ZM647.256 222.156L647.497 222.594L647.756 222.451V222.156H647.256ZM647.256 194.152H647.756V193.443L647.088 193.681L647.256 194.152ZM505.041 382.491L504.541 382.471L504.519 383.024L505.071 382.99L505.041 382.491ZM499.001 331.975L499.039 331.476L498.305 331.419L498.523 332.122L499.001 331.975ZM647.256 373.706L647.287 374.205L647.756 374.176V373.706H647.256ZM647.256 343.505H647.756V343.043L647.295 343.007L647.256 343.505ZM393.575 117.279L394.029 117.071L393.087 117.389L393.575 117.279ZM369.414 245.218L369.031 244.898L369.031 244.898L369.414 245.218ZM423.892 220.533L423.396 220.599L423.396 220.599L423.892 220.533ZM424.084 221.992L423.588 222.058L423.588 222.058L424.084 221.992ZM424.218 223.009L423.723 223.074L423.723 223.074L424.218 223.009ZM424.323 223.803L423.828 223.869L423.828 223.869L424.323 223.803ZM412.243 307.815L411.774 307.643L411.762 307.676L411.755 307.709L412.243 307.815ZM412.243 345.153L411.759 345.278L411.759 345.278L412.243 345.153ZM432.56 360.528L432.595 360.029L432.552 360.026L432.508 360.03L432.56 360.528ZM445.189 251.258L445.561 250.924L444.705 251.383L445.189 251.258ZM486.371 336.368L486.86 336.265L486.859 336.26L486.371 336.368ZM491.313 413.79L491.813 413.808L491.813 413.808L491.313 413.79ZM452.876 484.074L452.973 484.564L453.069 484.545L453.151 484.492L452.876 484.074ZM299.679 484.074L299.34 484.441L299.455 484.547L299.609 484.569L299.679 484.074ZM305.719 281.458L306.164 281.686L305.342 281.13L305.719 281.458ZM316.152 396.219L315.899 396.65L316.944 397.264L316.636 396.092L316.152 396.219ZM309.563 353.389L309.064 353.414L309.064 353.414L309.563 353.389ZM322.192 307.815L322.625 308.066L322.639 308.041L322.651 308.014L322.192 307.815ZM733.464 29.9734V29.4734H732.964V29.9734H733.464ZM733.464 98.061H732.964V98.561H733.464V98.061ZM749.936 29.9734L750.428 30.0642L750.537 29.4734H749.936V29.9734ZM743.347 65.6645L742.855 65.5737L742.838 65.6691L742.857 65.7642L743.347 65.6645ZM749.936 98.061V98.561H750.548L750.426 97.9614L749.936 98.061ZM17.9947 96.9628V97.4628H18.4947V96.9628H17.9947ZM17.9947 28.8752H18.4947V28.3752H17.9947V28.8752ZM1.52185 96.9628L1.03188 96.8631L0.909919 97.4628H1.52185V96.9628ZM8.11097 64.5663L8.60094 64.6659L8.62027 64.5709L8.60266 64.4755L8.11097 64.5663ZM1.52185 28.8752V28.3752H0.921094L1.03016 28.966L1.52185 28.8752ZM282.108 504.939L282.348 504.5L281.564 504.073L281.609 504.964L282.108 504.939ZM469.349 504.939L469.849 504.964L469.888 504.172L469.156 504.478L469.349 504.939ZM285.403 570.83L284.903 570.855L284.911 570.999L284.993 571.117L285.403 570.83ZM466.055 570.83L466.495 571.067L466.548 570.968L466.554 570.855L466.055 570.83ZM440.247 588.401H440.747V587.828L440.179 587.906L440.247 588.401ZM311.21 588.401L311.277 587.906L310.679 587.825L310.711 588.428L311.21 588.401ZM440.247 610.365L440.358 610.852L440.747 610.764V610.365H440.247ZM312.308 609.267L311.809 609.293L311.828 609.654L312.176 609.749L312.308 609.267ZM394.673 249.062L395.138 248.878L394.501 247.266L394.181 248.969L394.673 249.062ZM394.673 295.735L394.209 295.547L394.209 295.547L394.673 295.735ZM385.887 345.702L385.387 345.712L385.387 345.717L385.887 345.702ZM419.382 394.571L419.214 395.042L419.214 395.042L419.382 394.571ZM469.349 377.549L469.849 377.535L469.801 375.861L468.923 377.287L469.349 377.549ZM461.113 413.79L461.531 414.064L461.536 414.056L461.113 413.79ZM376.553 434.655L376.342 435.109L376.342 435.109L376.553 434.655ZM340.312 342.957L340.795 343.088L340.799 343.072L340.802 343.057L340.312 342.957ZM282.108 369.862L282.6 369.773L281.608 369.839L282.108 369.862ZM306.817 446.735L306.959 446.256L306.937 446.249L306.915 446.245L306.817 446.735ZM323.29 434.655L322.793 434.6L322.792 434.605L323.29 434.655ZM311.759 414.339L312.077 413.953L312.077 413.953L311.759 414.339ZM295.286 400.611L295.612 400.232L295.599 400.221L295.586 400.211L295.286 400.611ZM72.3545 37.6605L72.1809 37.1916L71.8186 37.3258L71.857 37.7102L72.3545 37.6605ZM87.18 32.1695V31.6695H87.0904L87.0064 31.7006L87.18 32.1695ZM73.4527 48.6423L72.9552 48.6921L73.0115 49.2553L73.5635 49.1299L73.4527 48.6423ZM85.5328 45.8969H86.0328V45.2705L85.422 45.4093L85.5328 45.8969ZM85.5328 96.4135H85.0328V96.9135H85.5328V96.4135ZM99.2601 96.4135V96.9135H99.7601V96.4135H99.2601ZM99.2601 32.1695H99.7601V31.6695H99.2601V32.1695ZM234.814 95.4768L235.017 95.0198L235.017 95.0198L234.814 95.4768ZM261.13 95.4768L260.929 95.0187L260.927 95.0198L261.13 95.4768ZM270.455 88.4631L270.059 88.1578L270.059 88.1578L270.455 88.4631ZM272.671 71.9442L272.21 72.1376L272.21 72.1377L272.671 71.9442ZM269.347 66.9608L268.979 67.2988L268.986 67.3068L268.994 67.3145L269.347 66.9608ZM264.454 63.3617L264.218 63.803L264.227 63.8076L264.236 63.8118L264.454 63.3617ZM263.532 62.8931L263.263 62.4711L262.506 62.9522L263.314 63.3432L263.532 62.8931ZM263.679 62.7989L263.95 63.2192L263.95 63.2192L263.679 62.7989ZM263.807 62.7157L264.08 63.1346L264.087 63.1305L264.093 63.1263L263.807 62.7157ZM267.593 59.3935L267.964 59.7281L267.964 59.7281L267.593 59.3935ZM267.962 40.752L267.562 41.0521L267.567 41.0578L267.962 40.752ZM259.652 34.4766L259.451 34.9346L259.458 34.9375L259.652 34.4766ZM236.292 34.4766L236.486 34.9375L236.492 34.9346L236.292 34.4766ZM227.889 40.752L227.494 40.4461L227.489 40.4519L227.889 40.752ZM225.766 55.0561L225.299 55.2357L225.301 55.2419L225.766 55.0561ZM228.259 59.3012L227.87 59.616L227.879 59.6267L228.259 59.3012ZM232.044 62.7157L231.759 63.1263L231.769 63.1336L231.78 63.1403L232.044 62.7157ZM232.167 62.792L232.386 63.2416L233.2 62.8456L232.431 62.3675L232.167 62.792ZM231.583 63.0849L231.353 62.6405L231.347 62.6436L231.583 63.0849ZM226.689 66.684L227.042 67.0376L227.042 67.0376L226.689 66.684ZM223.457 71.6673L223.918 71.8608L223.92 71.8556L223.457 71.6673ZM225.581 88.4631L225.178 88.7594L225.185 88.7685L225.581 88.4631ZM253.65 84.6795L253.845 85.1401L253.853 85.1364L253.65 84.6795ZM242.293 84.6795L242.09 85.1364L242.098 85.1396L242.105 85.1426L242.293 84.6795ZM238.323 81.7264L237.923 82.0265L237.928 82.0327L237.933 82.0388L238.323 81.7264ZM238.323 73.4208L237.933 73.1083L237.931 73.1108L238.323 73.4208ZM242.293 70.5599L242.482 71.023L242.489 71.0201L242.496 71.0169L242.293 70.5599ZM253.65 70.5599L253.447 71.0169L253.455 71.0201L253.462 71.023L253.65 70.5599ZM257.528 73.4208L257.129 73.7209L257.137 73.7321L257.146 73.7429L257.528 73.4208ZM257.528 81.8187L257.138 81.5062L257.136 81.5087L257.528 81.8187ZM252.727 56.5327L252.528 56.074L252.52 56.0774L252.727 56.5327ZM239.8 54.041L239.395 54.3338L239.404 54.3467L239.414 54.3589L239.8 54.041ZM239.8 46.8428L240.188 47.1582L240.193 47.1525L240.197 47.1466L239.8 46.8428ZM243.124 44.3511L243.324 44.8097L243.324 44.8097L243.124 44.3511ZM252.819 44.3511L253.019 43.8925L253.019 43.8925L252.819 44.3511ZM256.051 46.8428L255.643 47.1312L255.652 47.145L255.663 47.1582L256.051 46.8428ZM256.051 54.041L256.448 54.3449L256.456 54.3338L256.051 54.041ZM455.861 94.5316L456.111 94.0986L456.111 94.0986L455.861 94.5316ZM446.287 85.8457L445.963 85.4649L445.635 85.7444L445.863 86.1103L446.287 85.8457ZM456.276 77.3483L456.699 77.0814L456.391 76.5939L455.952 76.9674L456.276 77.3483ZM458.572 79.7838L458.261 80.175L458.277 80.1881L458.295 80.1998L458.572 79.7838ZM458.572 79.784L458.884 79.3927L458.867 79.3796L458.85 79.3679L458.572 79.784ZM459.934 80.9576L459.584 81.3148L459.592 81.3223L459.6 81.3294L459.934 80.9576ZM464.715 84.1249L464.507 84.5795L464.513 84.582L464.715 84.1249ZM476.138 84.3058L476.318 84.772L476.318 84.772L476.138 84.3058ZM480.299 81.3196L480.69 81.6321L480.696 81.6236L480.299 81.3196ZM480.388 71.6368L479.996 71.9474L480.003 71.9565L480.388 71.6368ZM476.492 68.922L476.315 69.3896L476.323 69.3926L476.33 69.3953L476.492 68.922ZM468.346 68.2886L468.257 67.7965L468.257 67.7965L468.346 68.2886ZM465.424 69.0125L465.548 69.497L465.562 69.4933L465.576 69.4888L465.424 69.0125ZM462.679 70.0984L462.216 70.2872L462.427 70.8052L462.918 70.5375L462.679 70.0984ZM459.137 61.4111L458.781 61.0605L458.55 61.2951L458.674 61.5999L459.137 61.4111ZM473.654 46.653L474.01 47.0036L474.826 46.1746L473.663 46.1531L473.654 46.653ZM449.574 46.2083H449.074V46.6991L449.565 46.7082L449.574 46.2083ZM449.574 33.2678V32.7678H449.074V33.2678H449.574ZM494.023 33.2678H494.523V32.7678H494.023V33.2678ZM494.023 44.3079L494.342 44.6932L494.523 44.5432V44.3079H494.023ZM478.822 56.8847L478.503 56.4995L477.682 57.1786L478.729 57.3761L478.822 56.8847ZM482.778 58.0629L482.587 58.525L482.597 58.5288L482.778 58.0629ZM489.419 62.135L489.085 62.507L489.085 62.507L489.419 62.135ZM494.023 68.3791L493.57 68.5898L493.572 68.5942L494.023 68.3791ZM492.253 87.5636L491.842 87.2786L491.841 87.28L492.253 87.5636ZM483.133 95.2555L482.913 94.806L482.911 94.8074L483.133 95.2555ZM652.128 96.1524L652.36 96.5954L652.362 96.594L652.128 96.1524ZM661.397 87.8844L661.813 88.1609L661.816 88.1574L661.397 87.8844ZM661.675 64.3958L661.247 64.654L661.25 64.6597L661.675 64.3958ZM635.165 54.5306L635.278 55.0178L635.288 55.0153L635.165 54.5306ZM633.126 55.0628H632.626V55.7295L633.266 55.5428L633.126 55.0628ZM633.126 45.605V45.105H632.626V45.605H633.126ZM660.285 45.605V46.105H660.785V45.605H660.285ZM660.285 32.1695H660.785V31.6695H660.285V32.1695ZM620.465 32.1695V31.6695H619.965V32.1695H620.465ZM620.465 62.963H619.965V63.1633L620.103 63.3081L620.465 62.963ZM626.133 68.9056L625.771 69.2507L626.041 69.5343L626.381 69.3395L626.133 68.9056ZM627.441 68.277L627.591 68.7538L627.591 68.7538L627.441 68.277ZM628.492 67.8721L628.693 68.3297L628.693 68.3297L628.492 67.8721ZM633.126 66.3689L633.236 66.8567L633.236 66.8567L633.126 66.3689ZM644.62 67.1205L644.394 67.5665L644.4 67.5696L644.62 67.1205ZM648.791 70.6908L648.373 70.9655L648.38 70.9756L648.387 70.9854L648.791 70.6908ZM648.791 80.8378L648.381 80.5513L648.373 80.5631L648.791 80.8378ZM644.62 84.4081L644.833 84.8606L644.84 84.8572L644.62 84.4081ZM630.345 83.8444L630.128 84.2948L630.137 84.2989L630.345 83.8444ZM623.644 78.8425L624 78.4913L623.6 78.0854L623.25 78.5355L623.644 78.8425ZM615.957 88.7262L615.562 88.4192L615.316 88.7354L615.571 89.0444L615.957 88.7262ZM723.03 0.92041H27.8776V1.92041H723.03V0.92041ZM723.53 124.417V1.42041H722.53V124.417H723.53ZM411.145 124.917H723.03V123.917H411.145V124.917ZM393.574 102.405C398.12 102.405 401.926 106.165 404.871 110.952C407.794 115.703 409.755 121.282 410.663 124.551L411.627 124.284C410.704 120.963 408.712 115.287 405.723 110.428C402.756 105.606 398.691 101.405 393.574 101.405V102.405ZM393.087 49.6278C391.07 58.3354 388.648 71.4056 387.941 82.3107C387.588 87.7563 387.659 92.7033 388.442 96.3053C388.833 98.1044 389.411 99.6134 390.239 100.682C391.082 101.771 392.189 102.405 393.574 102.405V101.405C392.543 101.405 391.712 100.952 391.029 100.07C390.332 99.1694 389.796 97.8257 389.419 96.0929C388.667 92.631 388.587 87.7973 388.939 82.3754C389.641 71.5456 392.051 58.5338 394.061 49.8534L393.087 49.6278ZM390.056 24.3805C394.644 26.6745 396.167 31.2422 396.149 36.1762C396.131 41.1107 394.563 46.2847 393.117 49.5376L394.031 49.9437C395.514 46.6074 397.13 41.2937 397.149 36.1799C397.167 31.0655 395.579 26.024 390.503 23.486L390.056 24.3805ZM365.962 34.1276C368.036 31.5126 371.748 27.8839 376.118 25.5121C380.489 23.1394 385.43 22.0677 390.056 24.3805L390.503 23.486C385.464 20.9667 380.155 22.1829 375.641 24.6332C371.125 27.0842 367.314 30.8133 365.178 33.5062L365.962 34.1276ZM339.713 101.929C341.463 66.9216 357.95 42.1437 365.924 34.1705L365.217 33.4634C357.083 41.5969 340.478 66.6035 338.714 101.88L339.713 101.929ZM339.714 124.417V101.905H338.714V124.417H339.714ZM27.8776 124.917H339.214V123.917H27.8776V124.917ZM27.3776 1.42041V124.417H28.3776V1.42041H27.3776ZM352.34 252.423C358.287 208.248 355.7 174.654 353.553 146.764L352.556 146.841C354.702 174.722 357.281 208.226 351.349 252.289L352.34 252.423ZM381.568 125.117C389.44 150.086 385.852 176.785 378.308 199.785C370.766 222.783 359.286 242.026 351.451 252.048L352.239 252.664C360.144 242.553 371.679 223.207 379.259 200.097C386.838 176.988 390.48 150.059 382.522 124.816L381.568 125.117ZM381.587 36.911C377.709 45.7726 365.597 74.4531 381.568 125.117L382.522 124.816C366.643 74.4464 378.692 46.0212 382.503 37.3118L381.587 36.911ZM353.553 146.764C351.847 124.596 350.426 106.09 353.746 88.7063C357.06 71.3515 365.108 55.0908 382.402 37.4615L381.688 36.7613C364.272 54.5152 356.119 70.9493 352.764 88.5188C349.414 106.059 350.852 124.707 352.556 146.841L353.553 146.764ZM58.1275 129.908V145.283H59.1275V129.908H58.1275ZM36.6638 130.408H58.6275V129.408H36.6638V130.408ZM58.9142 144.873L36.9505 129.499L36.377 130.318L58.3408 145.693L58.9142 144.873ZM685.143 131.605H656.59V132.605H685.143V131.605ZM685.643 473.092V132.105H684.643V473.092H685.643ZM379.331 799.752C499.196 791.834 575.243 735.739 621.584 668.826C667.911 601.934 684.543 524.247 685.643 473.102L684.643 473.081C683.546 524.068 666.957 601.555 620.762 668.257C574.581 734.938 498.804 790.858 379.265 798.754L379.331 799.752ZM67.4617 473.1C68.3782 525.16 85.0642 603.947 132.153 671.162C179.257 738.398 256.772 794.034 379.274 799.753L379.321 798.754C257.147 793.051 179.909 737.587 132.972 670.588C86.0193 603.568 69.3753 524.985 68.4615 473.083L67.4617 473.1ZM67.4616 132.105V473.092H68.4616V132.105H67.4616ZM94.8672 131.605H67.9616V132.605H94.8672V131.605ZM95.3672 473.092V132.105H94.3672V473.092H95.3672ZM379.322 772.397C268.571 766.915 198.196 715.891 155.197 654.349C112.183 592.786 96.5548 520.681 95.367 473.079L94.3673 473.104C95.559 520.862 111.229 593.168 154.377 654.922C197.54 716.698 268.19 767.897 379.273 773.396L379.322 772.397ZM656.09 473.071C651.264 591.536 604.107 666.074 547.161 711.143C490.196 756.228 423.401 771.849 379.291 772.397L379.304 773.397C423.599 772.846 490.617 757.169 547.782 711.928C604.965 666.671 652.252 591.856 657.089 473.112L656.09 473.071ZM656.09 132.105V473.092H657.09V132.105H656.09ZM693.33 147.479V132.105H692.33V147.479H693.33ZM714.507 131.695L692.543 147.07L693.117 147.889L715.08 132.514L714.507 131.695ZM692.83 132.605H714.794V131.605H692.83V132.605ZM454.682 487.293C466.727 483.278 477.011 470.916 484.854 457.405C492.712 443.869 498.192 429.056 500.582 419.957L499.615 419.703C497.246 428.723 491.798 443.452 483.989 456.903C476.165 470.38 466.04 482.453 454.365 486.345L454.682 487.293ZM455.023 500.546V486.819H454.023V500.546H455.023ZM297.911 498.835C319.208 504.159 380.296 512.032 454.597 501.041L454.45 500.052C380.276 511.024 319.319 503.157 298.153 497.865L297.911 498.835ZM297.532 486.819V498.35H298.532V486.819H297.532ZM251.969 424.882C255.099 438.689 268.627 470.466 297.782 487.252L298.281 486.386C269.452 469.787 256.038 438.308 252.945 424.661L251.969 424.882ZM106.086 504.281L252.694 425.212L252.22 424.331L105.612 503.401L106.086 504.281ZM109.62 524.007C108.53 520.555 106.349 511.677 106.349 503.841H105.349C105.349 511.819 107.561 520.805 108.667 524.308L109.62 524.007ZM266.027 471.519L108.986 523.683L109.301 524.632L266.342 472.468L266.027 471.519ZM110.417 530.666L266.359 472.462L266.01 471.525L110.067 529.729L110.417 530.666ZM346.395 760.868C284.329 755.574 150.205 702.024 110.729 530.086L109.754 530.309C149.348 702.763 283.913 756.542 346.31 761.864L346.395 760.868ZM335.421 623.581L345.853 761.404L346.851 761.328L336.418 623.506L335.421 623.581ZM418.222 623.047C401.942 625.059 362.726 627.869 336.008 623.051L335.83 624.035C362.704 628.881 402.045 626.054 418.345 624.04L418.222 623.047ZM408.898 761.402L418.782 623.579L417.785 623.508L407.901 761.33L408.898 761.402ZM642.37 530.111C630.307 598.836 566.596 741.142 408.338 760.87L408.461 761.862C567.359 742.055 631.258 599.198 643.355 530.284L642.37 530.111ZM486.737 469.164L642.679 530.663L643.046 529.732L487.103 468.234L486.737 469.164ZM644.676 523.686L487.086 468.227L486.754 469.171L644.344 524.629L644.676 523.686ZM647.305 498.337C647.213 501.713 646.939 507.054 646.415 512.094C646.152 514.615 645.828 517.054 645.434 519.131C645.038 521.221 644.579 522.902 644.063 523.934L644.957 524.381C645.539 523.217 646.018 521.42 646.417 519.317C646.818 517.202 647.146 514.733 647.409 512.198C647.937 507.126 648.212 501.759 648.304 498.364L647.305 498.337ZM499.864 420.271L647.57 498.792L648.039 497.909L500.333 419.388L499.864 420.271ZM302.049 263.008C297.468 268.231 290.378 276.64 283.992 284.9C280.799 289.03 277.778 293.127 275.334 296.772C272.896 300.409 271.011 303.626 270.11 305.989L271.045 306.345C271.902 304.096 273.732 300.958 276.165 297.329C278.592 293.709 281.597 289.632 284.783 285.512C291.154 277.271 298.23 268.878 302.801 263.668L302.049 263.008ZM104.035 193.525L302.258 263.809L302.592 262.867L104.369 192.583L104.035 193.525ZM104.702 217.214V193.054H103.702V217.214H104.702ZM270.813 305.727L104.438 216.773L103.967 217.655L270.342 306.608L270.813 305.727ZM257.497 331.759C253.63 339.862 246.241 361.436 247.566 383.071L248.564 383.01C247.253 361.596 254.579 340.195 258.4 332.19L257.497 331.759ZM104.241 344.553L257.988 332.473L257.909 331.476L104.163 343.556L104.241 344.553ZM104.702 373.157V344.055H103.702V373.157H104.702ZM248.099 382.542L104.237 372.658L104.168 373.656L248.03 383.539L248.099 382.542ZM492.34 307.667C487.043 290.453 472.506 267.811 465.912 258.653L465.1 259.237C471.684 268.382 486.139 290.913 491.384 307.961L492.34 307.667ZM647.014 221.718L491.621 307.377L492.104 308.252L647.497 222.594L647.014 221.718ZM646.756 194.152V222.156H647.756V194.152H646.756ZM465.674 259.416L647.424 194.623L647.088 193.681L465.338 258.474L465.674 259.416ZM505.54 382.511C506.421 360.48 501.871 339.557 499.478 331.827L498.523 332.122C500.889 339.767 505.417 360.575 504.541 382.471L505.54 382.511ZM647.225 373.207L505.01 381.992L505.071 382.99L647.287 374.205L647.225 373.207ZM646.756 343.505V373.706H647.756V343.505H646.756ZM498.962 332.473L647.217 344.004L647.295 343.007L499.039 331.476L498.962 332.473ZM393.087 117.389C396.004 130.334 398.306 152.269 395.713 175.95C393.12 199.633 385.638 225.013 369.031 244.898L369.798 245.539C386.576 225.449 394.102 199.855 396.707 176.059C399.313 152.262 397.002 130.215 394.062 117.169L393.087 117.389ZM424.387 220.468C422.074 202.933 420.352 189.874 416.272 174.802C412.191 159.73 405.756 142.658 394.029 117.071L393.12 117.488C404.836 143.05 411.246 160.066 415.306 175.064C419.367 190.062 421.082 203.056 423.396 220.599L424.387 220.468ZM424.58 221.927L424.387 220.468L423.396 220.599L423.588 222.058L424.58 221.927ZM424.714 222.943L424.58 221.927L423.588 222.058L423.723 223.074L424.714 222.943ZM424.819 223.738L424.714 222.943L423.723 223.074L423.828 223.869L424.819 223.738ZM412.713 307.986C415.56 300.181 419.575 286.619 422.386 271.266C425.195 255.919 426.806 238.747 424.819 223.738L423.828 223.869C425.795 238.73 424.203 255.785 421.402 271.086C418.602 286.383 414.601 299.891 411.774 307.643L412.713 307.986ZM412.727 345.028C409.241 331.52 411.275 314.66 412.732 307.92L411.755 307.709C410.283 314.514 408.217 331.552 411.759 345.278L412.727 345.028ZM432.508 360.03C429.944 360.296 425.848 359.87 421.972 357.716C418.113 355.571 414.45 351.701 412.727 345.028L411.759 345.278C413.551 352.222 417.393 356.315 421.486 358.59C425.562 360.855 429.867 361.309 432.611 361.025L432.508 360.03ZM450.782 338.889C446.405 347.642 442.408 352.991 439.211 356.121C437.612 357.686 436.221 358.689 435.089 359.288C433.947 359.892 433.105 360.065 432.595 360.029L432.524 361.026C433.295 361.081 434.33 360.82 435.556 360.172C436.792 359.518 438.26 358.451 439.911 356.835C443.211 353.605 447.267 348.155 451.676 339.337L450.782 338.889ZM444.705 251.383C447.537 262.348 451.239 279.895 453.134 296.888C454.082 305.385 454.577 313.732 454.29 321.042C454.002 328.365 452.93 334.593 450.782 338.889L451.676 339.337C453.921 334.847 454.999 328.447 455.289 321.081C455.579 313.703 455.079 305.302 454.128 296.777C452.226 279.727 448.515 262.132 445.673 251.133L444.705 251.383ZM486.859 336.26C483.008 318.838 469.366 277.374 445.561 250.924L444.817 251.593C468.454 277.855 482.047 319.122 485.883 336.476L486.859 336.26ZM491.813 413.808C493.132 376.87 489.065 346.739 486.86 336.265L485.882 336.471C488.069 346.862 492.13 376.912 490.813 413.772L491.813 413.808ZM453.151 484.492C465.501 476.381 490.487 450.919 491.813 413.808L490.813 413.772C489.503 450.459 464.778 475.66 452.602 483.656L453.151 484.492ZM299.609 484.569C329.275 488.781 401.493 494.684 452.973 484.564L452.78 483.583C401.469 493.67 329.386 487.786 299.75 483.579L299.609 484.569ZM305.342 281.13C288.552 300.397 268.101 333.669 261.314 370.898C254.521 408.155 261.415 449.383 299.34 484.441L300.019 483.707C262.388 448.92 255.555 408.059 262.297 371.078C269.045 334.069 289.392 300.956 306.096 281.787L305.342 281.13ZM316.405 395.788C307.645 390.64 296.555 378.755 291.915 359.846C287.277 340.947 289.075 314.988 306.164 281.686L305.274 281.23C288.1 314.698 286.237 340.903 290.944 360.084C295.647 379.255 306.905 391.365 315.899 396.65L316.405 395.788ZM309.064 353.414C309.945 371.03 313.832 389.369 315.669 396.346L316.636 396.092C314.811 389.159 310.939 370.891 310.063 353.364L309.064 353.414ZM321.76 307.563C319.455 311.529 316.063 318.562 313.357 326.808C310.652 335.052 308.62 344.544 309.064 353.414L310.063 353.364C309.628 344.664 311.622 335.304 314.308 327.12C316.992 318.94 320.354 311.971 322.625 308.066L321.76 307.563ZM369.031 244.898C352.333 264.89 340.978 279.496 333.567 289.633C326.168 299.753 322.675 305.452 321.734 307.615L322.651 308.014C323.54 305.968 326.966 300.356 334.374 290.223C341.77 280.108 353.111 265.52 369.798 245.539L369.031 244.898ZM732.964 29.9734V98.061H733.964V29.9734H732.964ZM749.936 29.4734H733.464V30.4734H749.936V29.4734ZM743.839 65.7553L750.428 30.0642L749.445 29.8827L742.855 65.5737L743.839 65.7553ZM750.426 97.9614L743.837 65.5649L742.857 65.7642L749.446 98.1607L750.426 97.9614ZM733.464 98.561H749.936V97.561H733.464V98.561ZM18.4947 96.9628V28.8752H17.4947V96.9628H18.4947ZM1.52185 97.4628H17.9947V96.4628H1.52185V97.4628ZM7.62101 64.4666L1.03188 96.8631L2.01182 97.0624L8.60094 64.6659L7.62101 64.4666ZM1.03016 28.966L7.61928 64.657L8.60266 64.4755L2.01354 28.7844L1.03016 28.966ZM17.9947 28.3752H1.52185V29.3752H17.9947V28.3752ZM281.869 505.378C284.957 507.062 289.736 508.507 295.752 509.731C301.779 510.957 309.088 511.969 317.261 512.772C333.609 514.379 353.445 515.151 373.465 515.117C393.484 515.082 413.696 514.241 430.797 512.618C447.876 510.997 461.914 508.59 469.542 505.4L469.156 504.478C461.684 507.602 447.787 510.001 430.702 511.622C413.639 513.242 393.459 514.082 373.463 514.117C353.467 514.151 333.665 513.379 317.359 511.777C309.206 510.976 301.934 509.968 295.951 508.751C289.958 507.531 285.3 506.11 282.348 504.5L281.869 505.378ZM285.902 570.805L282.608 504.914L281.609 504.964L284.903 570.855L285.902 570.805ZM465.614 570.593C465.21 571.344 464.248 572.131 462.664 572.916C461.097 573.692 458.998 574.429 456.428 575.122C451.289 576.507 444.335 577.696 436.147 578.673C419.776 580.626 398.535 581.724 377.167 581.861C355.798 581.998 334.319 581.175 317.469 579.29C309.042 578.348 301.788 577.142 296.29 575.662C293.541 574.923 291.245 574.119 289.466 573.252C287.678 572.381 286.461 571.47 285.812 570.544L284.993 571.117C285.786 572.249 287.182 573.252 289.028 574.151C290.885 575.056 293.247 575.879 296.031 576.628C301.598 578.126 308.909 579.339 317.358 580.284C334.26 582.175 355.781 582.999 377.173 582.861C398.566 582.724 419.846 581.625 436.265 579.666C444.473 578.687 451.482 577.491 456.688 576.088C459.29 575.386 461.459 574.629 463.108 573.812C464.738 573.004 465.938 572.101 466.495 571.067L465.614 570.593ZM468.85 504.914L465.555 570.805L466.554 570.855L469.849 504.964L468.85 504.914ZM440.179 587.906C388.843 594.926 332.846 590.83 311.277 587.906L311.143 588.897C332.769 591.829 388.861 595.933 440.315 588.897L440.179 587.906ZM440.747 610.365V588.401H439.747V610.365H440.747ZM312.176 609.749C327.341 613.885 351.554 615.944 375.863 616.081C400.175 616.219 424.654 614.434 440.358 610.852L440.136 609.878C424.541 613.434 400.151 615.219 375.868 615.081C351.583 614.944 327.475 612.885 312.44 608.784L312.176 609.749ZM310.711 588.428L311.809 609.293L312.807 609.241L311.709 588.375L310.711 588.428ZM394.181 248.969C392.549 257.676 384.902 279.204 367.428 295.368L368.107 296.102C385.774 279.759 393.502 258.019 395.164 249.154L394.181 248.969ZM395.136 295.922C402.669 277.312 398.277 256.818 395.138 248.878L394.208 249.245C397.292 257.046 401.612 277.258 394.209 295.547L395.136 295.922ZM386.387 345.692C386.205 336.76 387.703 314.286 395.136 295.922L394.209 295.547C386.707 314.083 385.203 336.707 385.387 345.712L386.387 345.692ZM419.549 394.1C406.734 389.539 398.538 380.535 393.494 371.109C388.445 361.675 386.568 351.841 386.387 345.687L385.387 345.717C385.572 352.01 387.484 361.998 392.612 371.581C397.744 381.172 406.112 390.379 419.214 395.042L419.549 394.1ZM468.923 377.287C463.132 386.699 445.154 403.214 419.549 394.1L419.214 395.042C445.444 404.379 463.853 387.435 469.775 377.812L468.923 377.287ZM461.536 414.056C463.13 411.524 465.315 406.253 467.046 399.71C468.78 393.157 470.07 385.283 469.849 377.535L468.85 377.564C469.067 385.19 467.796 392.966 466.079 399.454C464.36 405.952 462.207 411.114 460.69 413.523L461.536 414.056ZM376.342 435.109C398.215 445.272 416.982 443.9 431.553 438.029C446.104 432.166 456.449 421.826 461.531 414.064L460.695 413.516C455.71 421.128 445.519 431.324 431.179 437.102C416.858 442.872 398.379 444.245 376.763 434.202L376.342 435.109ZM339.83 342.825C336.792 353.964 334.971 371.925 339.374 389.654C343.782 407.4 354.434 424.929 376.342 435.109L376.763 434.202C355.183 424.175 344.695 406.928 340.345 389.413C335.99 371.88 337.793 354.096 340.795 343.088L339.83 342.825ZM367.428 295.368C349.761 311.709 341.668 333.814 339.823 342.857L340.802 343.057C342.617 334.162 350.631 312.266 368.107 296.102L367.428 295.368ZM289.659 431.079C287.848 428.416 286.439 424.273 285.366 419.253C284.296 414.246 283.571 408.419 283.1 402.425C282.16 390.439 282.242 377.831 282.607 369.885L281.608 369.839C281.242 377.817 281.159 390.467 282.103 402.504C282.576 408.522 283.306 414.397 284.388 419.462C285.468 424.515 286.91 428.814 288.833 431.642L289.659 431.079ZM306.915 446.245C305.645 445.991 303.19 444.94 300.108 442.564C297.036 440.196 293.366 436.53 289.659 431.079L288.833 431.642C292.594 437.173 296.336 440.919 299.497 443.356C302.647 445.785 305.243 446.93 306.719 447.225L306.915 446.245ZM322.792 434.605C322.148 441.049 319.352 444.263 316.201 445.733C313.008 447.222 309.352 446.965 306.959 446.256L306.675 447.214C309.224 447.97 313.145 448.261 316.624 446.639C320.145 444.997 323.114 441.44 323.787 434.705L322.792 434.605ZM311.441 414.724C321.442 422.986 323.137 431.506 322.793 434.6L323.787 434.71C324.175 431.215 322.283 422.384 312.077 413.953L311.441 414.724ZM294.961 400.991C296.246 402.092 301.337 406.378 311.441 414.724L312.077 413.953C301.974 405.607 296.889 401.327 295.612 400.232L294.961 400.991ZM281.616 369.951C283.38 379.657 285.956 386.84 288.469 391.884C290.974 396.913 293.433 399.846 294.986 401.011L295.586 400.211C294.211 399.18 291.837 396.403 289.364 391.438C286.898 386.488 284.349 379.396 282.6 369.773L281.616 369.951ZM72.5282 38.1293L87.3537 32.6384L87.0064 31.7006L72.1809 37.1916L72.5282 38.1293ZM73.9502 48.5926L72.852 37.6107L71.857 37.7102L72.9552 48.6921L73.9502 48.5926ZM85.422 45.4093L73.3419 48.1548L73.5635 49.1299L85.6436 46.3844L85.422 45.4093ZM86.0328 96.4135V45.8969H85.0328V96.4135H86.0328ZM99.2601 95.9135H85.5328V96.9135H99.2601V95.9135ZM98.7601 32.1695V96.4135H99.7601V32.1695H98.7601ZM87.18 32.6695H99.2601V31.6695H87.18V32.6695ZM248.018 97.5607C243.152 97.5607 238.822 96.7099 235.017 95.0198L234.611 95.9337C238.563 97.689 243.035 98.5607 248.018 98.5607V97.5607ZM260.927 95.0198C257.121 96.7102 252.821 97.5607 248.018 97.5607V98.5607C252.941 98.5607 257.382 97.6886 261.332 95.9337L260.927 95.0198ZM270.059 88.1578C267.84 91.0348 264.804 93.3245 260.929 95.0187L261.33 95.9349C265.335 94.1838 268.515 91.7977 270.851 88.7685L270.059 88.1578ZM273.372 78.4041C273.372 82.0473 272.269 85.2928 270.059 88.1578L270.851 88.7685C273.197 85.7273 274.372 82.2668 274.372 78.4041H273.372ZM272.21 72.1377C272.981 73.9746 273.372 76.0606 273.372 78.4041H274.372C274.372 75.9488 273.962 73.7282 273.132 71.7507L272.21 72.1377ZM268.994 67.3145C270.362 68.6821 271.434 70.2883 272.21 72.1376L273.132 71.7508C272.308 69.7857 271.164 68.0697 269.701 66.6072L268.994 67.3145ZM264.236 63.8118C266.091 64.7088 267.67 65.8715 268.979 67.2988L269.716 66.6229C268.316 65.0971 266.633 63.8604 264.671 62.9116L264.236 63.8118ZM263.314 63.3432C263.619 63.4907 263.92 63.644 264.218 63.803L264.689 62.9205C264.379 62.7554 264.066 62.5962 263.749 62.4431L263.314 63.3432ZM263.408 62.3785C263.36 62.4095 263.312 62.4404 263.263 62.4711L263.8 63.3152C263.85 63.2833 263.9 63.2513 263.95 63.2192L263.408 62.3785ZM263.534 62.2969C263.492 62.3241 263.45 62.3513 263.408 62.3785L263.95 63.2192C263.993 63.1912 264.037 63.163 264.08 63.1346L263.534 62.2969ZM267.221 59.0589C266.14 60.2597 264.907 61.3419 263.522 62.3052L264.093 63.1263C265.539 62.1209 266.83 60.9882 267.964 59.7281L267.221 59.0589ZM269.712 54.9688C269.117 56.5134 268.287 57.8755 267.221 59.0589L267.964 59.7281C269.115 58.4506 270.008 56.9826 270.645 55.328L269.712 54.9688ZM270.602 49.9805C270.602 51.7695 270.303 53.4308 269.712 54.9688L270.645 55.328C271.284 53.6668 271.602 51.8828 271.602 49.9805H270.602ZM267.567 41.0578C269.591 43.6766 270.602 46.645 270.602 49.9805H271.602C271.602 46.4253 270.519 43.2414 268.358 40.4462L267.567 41.0578ZM259.458 34.9375C262.896 36.384 265.591 38.4245 267.562 41.0521L268.362 40.4519C266.271 37.6655 263.426 35.5223 259.846 34.0158L259.458 34.9375ZM248.018 32.6695C252.204 32.6695 256.013 33.4271 259.451 34.9346L259.853 34.0187C256.274 32.45 252.327 31.6695 248.018 31.6695V32.6695ZM236.492 34.9346C239.93 33.4275 243.77 32.6695 248.018 32.6695V31.6695C243.649 31.6695 239.67 32.4496 236.091 34.0187L236.492 34.9346ZM228.285 41.0578C230.319 38.4264 233.047 36.3845 236.486 34.9375L236.098 34.0158C232.519 35.5219 229.645 37.6635 227.494 40.4462L228.285 41.0578ZM225.342 49.9805C225.342 46.6413 226.324 43.6709 228.289 41.0521L227.489 40.4519C225.392 43.2471 224.342 46.429 224.342 49.9805H225.342ZM226.232 54.8765C225.64 53.3366 225.342 51.7058 225.342 49.9805H224.342C224.342 51.8235 224.66 53.5764 225.299 55.2357L226.232 54.8765ZM228.647 58.9865C227.632 57.7333 226.827 56.3617 226.23 54.8703L225.301 55.2419C225.936 56.8267 226.792 58.2851 227.87 59.6159L228.647 58.9865ZM232.33 62.3052C230.948 61.3448 229.718 60.235 228.638 58.9757L227.879 59.6267C229.015 60.9513 230.309 62.118 231.759 63.1263L232.33 62.3052ZM232.431 62.3675L232.308 62.2912L231.78 63.1403L231.903 63.2166L232.431 62.3675ZM231.812 63.5292C232.002 63.4312 232.193 63.3353 232.386 63.2416L231.948 62.3424C231.749 62.4395 231.55 62.5389 231.353 62.6405L231.812 63.5292ZM227.042 67.0376C228.422 65.659 230.013 64.4883 231.818 63.5261L231.347 62.6436C229.459 63.6502 227.788 64.8789 226.335 66.3303L227.042 67.0376ZM223.92 71.8556C224.698 69.942 225.74 68.3389 227.042 67.0376L226.335 66.3303C224.929 67.736 223.817 69.4553 222.994 71.4791L223.92 71.8556ZM222.757 78.4041C222.757 75.8706 223.149 73.6935 223.918 71.8608L222.996 71.4739C222.165 73.4556 221.757 75.7697 221.757 78.4041H222.757ZM225.984 88.167C223.83 85.237 222.757 81.9874 222.757 78.4041H221.757C221.757 82.2036 222.9 85.6601 225.178 88.7593L225.984 88.167ZM235.017 95.0198C231.205 93.3262 228.197 91.0365 225.977 88.1578L225.185 88.7685C227.52 91.796 230.668 94.1821 234.611 95.9337L235.017 95.0198ZM248.018 86.1946C250.224 86.1946 252.17 85.8482 253.845 85.14L253.456 84.219C251.93 84.8642 250.121 85.1946 248.018 85.1946V86.1946ZM242.105 85.1426C243.837 85.8481 245.812 86.1946 248.018 86.1946V85.1946C245.916 85.1946 244.073 84.8644 242.482 84.2164L242.105 85.1426ZM237.933 82.0388C238.975 83.3407 240.367 84.3707 242.09 85.1364L242.496 84.2225C240.896 83.5117 239.641 82.5729 238.713 81.4139L237.933 82.0388ZM236.438 77.5736C236.438 79.2199 236.935 80.7095 237.923 82.0265L238.723 81.4263C237.864 80.2824 237.438 79.0034 237.438 77.5736H236.438ZM237.931 73.1108C236.932 74.3748 236.438 75.8704 236.438 77.5736H237.438C237.438 76.0776 237.867 74.8046 238.715 73.7307L237.931 73.1108ZM242.105 70.0968C240.375 70.8012 238.978 71.8025 237.933 73.1083L238.713 73.7332C239.638 72.5781 240.888 71.6721 242.482 71.023L242.105 70.0968ZM248.018 68.9525C245.806 68.9525 243.827 69.3316 242.09 70.103L242.496 71.0169C244.084 70.3117 245.921 69.9525 248.018 69.9525V68.9525ZM253.853 70.103C252.119 69.3323 250.17 68.9525 248.018 68.9525V69.9525C250.052 69.9525 251.858 70.311 253.447 71.0169L253.853 70.103ZM257.928 73.1207C256.942 71.8064 255.571 70.802 253.839 70.0968L253.462 71.023C255.054 71.6714 256.268 72.5742 257.129 73.7209L257.928 73.1207ZM259.506 77.5736C259.506 75.862 258.975 74.3621 257.911 73.0986L257.146 73.7429C258.051 74.8172 258.506 76.0859 258.506 77.5736H259.506ZM257.919 82.1311C258.976 80.8105 259.506 79.2849 259.506 77.5736H258.506C258.506 79.0614 258.051 80.3658 257.138 81.5062L257.919 82.1311ZM253.853 85.1364C255.573 84.3724 256.937 83.3737 257.921 82.1286L257.136 81.5087C256.273 82.6015 255.052 83.51 253.447 84.2225L253.853 85.1364ZM248.018 57.9555C249.86 57.9555 251.503 57.6379 252.934 56.9879L252.52 56.0774C251.243 56.6579 249.746 56.9555 248.018 56.9555V57.9555ZM243.017 56.9912C244.505 57.6377 246.175 57.9555 248.018 57.9555V56.9555C246.291 56.9555 244.76 56.6581 243.416 56.0741L243.017 56.9912ZM239.414 54.3589C240.333 55.4738 241.539 56.3489 243.017 56.9912L243.416 56.0741C242.062 55.4859 240.991 54.7 240.186 53.723L239.414 54.3589ZM238.1 50.2573C238.1 51.7735 238.531 53.138 239.395 54.3338L240.206 53.7481C239.469 52.7291 239.1 51.5712 239.1 50.2573H238.1ZM239.412 46.5274C238.538 47.6027 238.1 48.8527 238.1 50.2573H239.1C239.1 49.0779 239.462 48.0516 240.188 47.1582L239.412 46.5274ZM242.925 43.8925C241.445 44.5358 240.263 45.4147 239.403 46.5389L240.197 47.1466C240.938 46.1791 241.972 45.3969 243.324 44.8097L242.925 43.8925ZM248.018 42.9282C246.116 42.9282 244.415 43.2451 242.925 43.8925L243.324 44.8097C244.665 44.2266 246.227 43.9282 248.018 43.9282V42.9282ZM253.019 43.8925C251.531 43.246 249.861 42.9282 248.018 42.9282V43.9282C249.745 43.9282 251.276 44.2257 252.62 44.8097L253.019 43.8925ZM256.46 46.5543C255.658 45.4196 254.501 44.5367 253.019 43.8925L252.62 44.8097C253.969 45.3959 254.967 46.1742 255.643 47.1312L256.46 46.5543ZM257.751 50.2573C257.751 48.8527 257.313 47.6027 256.439 46.5274L255.663 47.1582C256.389 48.0516 256.751 49.0779 256.751 50.2573H257.751ZM256.456 54.3338C257.321 53.138 257.751 51.7735 257.751 50.2573H256.751C256.751 51.5712 256.382 52.7291 255.646 53.7481L256.456 54.3338ZM252.926 56.9912C254.407 56.348 255.588 55.4691 256.448 54.3448L255.654 53.7371C254.914 54.7047 253.879 55.4869 252.528 56.0741L252.926 56.9912ZM455.611 94.9645C459.773 97.369 464.704 98.5608 470.382 98.5608V97.5608C464.845 97.5608 460.095 96.3997 456.111 94.0986L455.611 94.9645ZM445.863 86.1103C447.391 88.5591 448.798 90.1845 450.353 91.4981C451.9 92.8052 453.579 93.7907 455.611 94.9645L456.111 94.0986C454.07 92.9196 452.467 91.9753 450.998 90.7343C449.537 89.4997 448.195 87.9586 446.712 85.5811L445.863 86.1103ZM455.952 76.9674L445.963 85.4649L446.611 86.2265L456.6 77.7291L455.952 76.9674ZM458.883 79.3925C458.09 78.7614 457.424 78.2306 456.699 77.0814L455.853 77.6152C456.672 78.9124 457.448 79.5287 458.261 80.175L458.883 79.3925ZM458.85 79.3679L458.849 79.3677L458.295 80.1998L458.295 80.2L458.85 79.3679ZM460.284 80.6004C459.774 80.1005 459.308 79.7302 458.884 79.3927L458.261 80.1752C458.686 80.5132 459.115 80.8549 459.584 81.3148L460.284 80.6004ZM464.924 83.6703C463.26 82.9082 461.709 81.8811 460.268 80.5858L459.6 81.3294C461.111 82.6886 462.747 83.773 464.507 84.5794L464.924 83.6703ZM470.559 84.8013C468.497 84.8013 466.619 84.4211 464.918 83.6677L464.513 84.582C466.354 85.3972 468.371 85.8013 470.559 85.8013V84.8013ZM475.957 83.8396C474.308 84.4789 472.51 84.8013 470.559 84.8013V85.8013C472.622 85.8013 474.544 85.46 476.318 84.772L475.957 83.8396ZM479.909 81.0071C478.906 82.26 477.593 83.2053 475.957 83.8396L476.318 84.772C478.106 84.0792 479.567 83.0336 480.689 81.632L479.909 81.0071ZM481.393 76.3425C481.393 78.1752 480.891 79.7245 479.902 81.0156L480.696 81.6236C481.832 80.1396 482.393 78.3707 482.393 76.3425H481.393ZM480.003 71.9565C480.916 73.054 481.393 74.5009 481.393 76.3425H482.393C482.393 74.3229 481.866 72.6327 480.772 71.3171L480.003 71.9565ZM476.33 69.3953C477.837 69.9087 479.054 70.7589 479.996 71.9473L480.78 71.3264C479.714 69.9809 478.334 69.0213 476.653 68.4487L476.33 69.3953ZM471.268 68.5171C473.103 68.5171 474.783 68.81 476.315 69.3896L476.669 68.4544C475.013 67.8275 473.211 67.5171 471.268 67.5171V68.5171ZM468.434 68.7806C469.411 68.6045 470.355 68.5171 471.268 68.5171V67.5171C470.291 67.5171 469.287 67.6107 468.257 67.7965L468.434 68.7806ZM465.576 69.4888C466.499 69.194 467.452 68.9579 468.434 68.7806L468.257 67.7965C467.233 67.9813 466.237 68.2278 465.272 68.5362L465.576 69.4888ZM462.918 70.5375C463.768 70.074 464.645 69.7276 465.548 69.497L465.3 68.5281C464.314 68.78 463.36 69.1576 462.44 69.6594L462.918 70.5375ZM458.674 61.5999L462.216 70.2872L463.142 69.9097L459.6 61.2223L458.674 61.5999ZM473.297 46.3024L458.781 61.0605L459.494 61.7617L474.01 47.0036L473.297 46.3024ZM449.565 46.7082L473.645 47.1529L473.663 46.1531L449.584 45.7084L449.565 46.7082ZM449.074 33.2678V46.2083H450.074V33.2678H449.074ZM494.023 32.7678H449.574V33.7678H494.023V32.7678ZM494.523 44.3079V33.2678H493.523V44.3079H494.523ZM479.141 57.27L494.342 44.6932L493.705 43.9227L478.503 56.4995L479.141 57.27ZM482.969 57.6008C481.658 57.0584 480.307 56.6559 478.915 56.3934L478.729 57.3761C480.054 57.6258 481.339 58.0087 482.587 58.5249L482.969 57.6008ZM489.753 61.7631C487.76 59.9726 485.494 58.5837 482.96 57.5969L482.597 58.5288C485.021 59.4725 487.183 60.7984 489.085 62.507L489.753 61.7631ZM494.477 68.1683C493.327 65.695 491.752 63.5585 489.753 61.7631L489.085 62.507C490.982 64.2107 492.476 66.2369 493.57 68.5898L494.477 68.1683ZM496.206 76.071C496.206 73.2263 495.63 70.5882 494.475 68.1639L493.572 68.5942C494.66 70.8755 495.206 73.3654 495.206 76.071H496.206ZM492.663 87.8486C495.028 84.4404 496.206 80.5084 496.206 76.071H495.206C495.206 80.3209 494.081 84.0506 491.842 87.2786L492.663 87.8486ZM483.352 95.705C487.26 93.8001 490.369 91.1815 492.664 87.8472L491.841 87.28C489.65 90.4612 486.679 92.9705 482.913 94.8061L483.352 95.705ZM470.382 98.5608C475.172 98.5608 479.5 97.6118 483.354 95.7036L482.911 94.8074C479.21 96.6395 475.037 97.5608 470.382 97.5608V98.5608ZM638.966 98.6589C633.966 98.6589 629.374 97.6706 625.182 95.6999L624.757 96.6049C629.092 98.6428 633.831 99.6589 638.966 99.6589V98.6589ZM651.896 95.7093C648.146 97.6712 643.84 98.6589 638.966 98.6589V99.6589C643.978 99.6589 648.447 98.6422 652.36 96.5954L651.896 95.7093ZM660.98 87.6079C658.743 90.979 655.718 93.6801 651.893 95.7108L652.362 96.594C656.324 94.4906 659.478 91.6798 661.813 88.1609L660.98 87.6079ZM664.326 76.1401C664.326 80.3684 663.21 84.1877 660.978 87.6114L661.816 88.1574C664.157 84.5659 665.326 80.5557 665.326 76.1401H664.326ZM661.25 64.6597C663.296 67.9538 664.326 71.775 664.326 76.1401H665.326C665.326 71.6109 664.255 67.6026 662.1 64.132L661.25 64.6597ZM653.187 56.9431C656.569 58.7796 659.253 61.3476 661.247 64.654L662.103 64.1377C660.018 60.6794 657.203 57.986 653.664 56.0643L653.187 56.9431ZM641.746 54.1851C645.997 54.1851 649.807 55.1076 653.187 56.9431L653.664 56.0643C650.123 54.1416 646.147 53.1851 641.746 53.1851V54.1851ZM635.288 55.0153C637.475 54.4611 639.627 54.1851 641.746 54.1851V53.1851C639.54 53.1851 637.305 53.4727 635.042 54.046L635.288 55.0153ZM633.266 55.5428C633.921 55.3519 634.591 55.1769 635.278 55.0177L635.052 54.0435C634.348 54.2068 633.659 54.3865 632.986 54.5828L633.266 55.5428ZM632.626 45.605V55.0628H633.626V45.605H632.626ZM660.285 45.105H633.126V46.105H660.285V45.105ZM659.785 32.1695V45.605H660.785V32.1695H659.785ZM620.465 32.6695H660.285V31.6695H620.465V32.6695ZM620.965 62.963V32.1695H619.965V62.963H620.965ZM626.495 68.5606L620.827 62.6179L620.103 63.3081L625.771 69.2507L626.495 68.5606ZM627.29 67.8003C626.951 67.9076 626.741 67.9809 625.884 68.4718L626.381 69.3395C627.2 68.8704 627.342 68.8326 627.591 68.7538L627.29 67.8003ZM628.29 67.4146C627.726 67.6632 627.481 67.7399 627.29 67.8003L627.591 68.7538C627.81 68.6846 628.09 68.5954 628.693 68.3297L628.29 67.4146ZM633.016 65.8811C631.319 66.2633 629.743 66.774 628.29 67.4146L628.693 68.3297C630.082 67.7176 631.596 67.2261 633.236 66.8567L633.016 65.8811ZM638.595 65.3052C636.586 65.3052 634.726 65.496 633.016 65.8811L633.236 66.8567C634.863 66.4901 636.649 66.3052 638.595 66.3052V65.3052ZM644.846 66.6745C643.034 65.7563 640.946 65.3052 638.595 65.3052V66.3052C640.817 66.3052 642.745 66.7309 644.394 67.5665L644.846 66.6745ZM649.209 70.416C648.166 68.83 646.703 67.5833 644.84 66.6714L644.4 67.5696C646.121 68.4116 647.439 69.545 648.373 70.9655L649.209 70.416ZM650.867 75.7643C650.867 73.7266 650.313 71.9301 649.195 70.3962L648.387 70.9854C649.369 72.3327 649.867 73.9185 649.867 75.7643H650.867ZM649.201 81.1242C650.311 79.5348 650.867 77.7432 650.867 75.7643H649.867C649.867 77.5436 649.371 79.1343 648.381 80.5514L649.201 81.1242ZM644.84 84.8572C646.703 83.9454 648.166 82.6986 649.209 81.1126L648.373 80.5631C647.439 81.9836 646.121 83.117 644.4 83.959L644.84 84.8572ZM638.502 86.1295C640.908 86.1295 643.022 85.7124 644.833 84.8605L644.407 83.9557C642.757 84.7323 640.793 85.1295 638.502 85.1295V86.1295ZM630.137 84.2989C632.797 85.5188 635.587 86.1295 638.502 86.1295V85.1295C635.732 85.1295 633.084 84.5501 630.554 83.3899L630.137 84.2989ZM623.288 79.1936C625.852 81.7918 627.469 83.0113 630.128 84.2947L630.563 83.3941C628.031 82.172 626.504 81.0293 624 78.4913L623.288 79.1936ZM616.352 89.0331L624.039 79.1494L623.25 78.5355L615.562 88.4192L616.352 89.0331ZM625.182 95.6999C621.013 93.7401 619.163 91.8257 616.343 88.4079L615.571 89.0444C618.436 92.5166 620.398 94.556 624.757 96.6049L625.182 95.6999Z" fill="black"/>
</svg>
