<svg width="571" height="794" viewBox="0 0 571 794" fill="none" xmlns="http://www.w3.org/2000/svg">
<path fill-rule="evenodd" clip-rule="evenodd" d="M569.761 0.42041H0.355957V48.6751H569.761V0.42041ZM570.565 72.8023H0.355957V678.398C0.355957 699.63 26.0918 709.228 38.9597 711.372L285.058 793.405C357.44 770.082 509.282 721.023 537.591 711.372C565.9 701.721 571.369 685.368 570.565 678.398V72.8023ZM200.613 133.925H75.1511V163.682H110.538C116.972 163.682 120.189 170.652 120.993 174.137V389.674C120.993 397.395 111.878 402.006 107.321 403.347H74.3468V432.299H201.417V403.347H174.073C160.562 403.347 156.112 391.015 155.576 384.849L157.184 185.396L258.519 432.299H291.493L392.023 179.767V393.696C392.023 398.843 385.589 402.274 382.372 403.347H346.181V432.299H495.771V403.347H468.426C457.489 403.347 453.146 392.623 452.342 387.262V174.137C452.342 167.06 459.312 164.218 462.797 163.682H495.771V133.925H371.917L288.276 347.854L200.613 133.925ZM471.647 462.079H494.97V540.091H467.626C467.358 520.521 454.758 481.381 406.503 481.381C358.249 481.381 345.376 522.13 345.376 541.7V577.89C345.108 601.481 357.605 648.664 406.503 648.664C467.626 648.664 471.647 593.975 471.647 585.933H494.97C494.432 613.545 480.489 668.77 429.018 668.77H378.35C350.47 665.285 294.226 642.23 292.296 577.89V545.72C295.245 516.231 320.927 457.253 400.065 457.253C412.665 456.985 440.76 458.862 461.992 474.947C463.599 476.02 467.296 477.199 469.23 473.339C471.164 469.478 471.647 464.224 471.647 462.079ZM272.195 462.103H248.871C248.871 464.248 248.388 469.502 246.454 473.363C244.521 477.223 240.823 476.043 239.216 474.971C217.984 458.886 189.889 457.009 177.289 457.277C98.1517 457.277 72.4695 516.255 69.5206 545.744V577.914C71.4508 642.253 127.694 665.309 155.575 668.794H206.242C257.714 668.794 271.657 613.569 272.195 585.956H248.871C248.871 593.999 244.85 648.687 183.728 648.687C134.83 648.687 122.333 601.505 122.601 577.914V541.723C122.601 522.153 135.473 481.405 183.728 481.405C231.982 481.405 244.582 520.545 244.85 540.115H272.195V462.103Z" fill="black"/>
</svg>
